# 3ds Max Wavefront OBJ Exporter v0.97b - (c)2007 guruware
# File Created: 17.08.2016 18:57:06

mtllib Walkie_Talkie.mtl

#
# object Walkie_Talkie
#

v  -4.0712 -6.6277 2.1596
v  3.5920 -6.6277 2.1596
v  3.2282 -6.2639 2.1596
v  3.5920 5.5015 2.1595
v  3.2282 5.1377 2.1595
v  -4.0712 5.5015 2.1595
v  -3.7074 -6.2639 2.1596
v  -3.7074 5.1377 2.1595
v  3.5920 11.0460 2.1595
v  -4.0712 11.0460 2.1595
v  2.9791 -5.9726 2.0052
v  2.9791 4.8464 2.0052
v  -3.4583 4.8464 2.0052
v  -3.4583 -5.9726 2.0052
v  -4.0712 11.0460 -2.1596
v  3.5920 11.0460 -2.1596
v  3.5920 -6.6277 -2.1595
v  -4.0712 -6.6277 -2.1595
v  3.3313 11.7376 -0.0033
v  3.2894 12.7561 0.0692
v  3.4954 12.7561 0.4259
v  3.5791 11.7376 0.4259
v  2.5879 11.7376 0.4259
v  2.6716 12.7561 0.4259
v  2.8775 12.7561 0.0692
v  2.8357 11.7376 -0.0033
v  2.8357 11.7376 0.8551
v  2.8775 12.7561 0.7826
v  2.7859 11.7376 -0.0896
v  3.3811 11.7376 -0.0896
v  3.6787 11.7376 0.4259
v  3.3313 11.7376 0.8551
v  3.3811 11.7376 0.9414
v  2.7859 11.7376 0.9414
v  2.4883 11.7376 0.4259
v  3.2894 12.7561 0.7826
v  -3.2040 13.4359 -0.2328
v  -3.3293 25.7367 -0.0157
v  -3.1929 25.7367 0.2206
v  -2.9421 13.4359 0.2206
v  -3.9894 13.4359 0.2206
v  -3.7386 25.7367 0.2206
v  -3.6022 25.7367 -0.0157
v  -3.7276 13.4359 -0.2328
v  -3.7276 13.4359 0.6741
v  -3.6022 25.7367 0.4569
v  -3.3293 25.7367 0.4569
v  -3.2040 13.4359 0.6741
v  -2.8467 13.4359 0.2206
v  -3.1562 13.4359 0.7568
v  -3.7753 13.4359 0.7568
v  -4.0849 13.4359 0.2206
v  -3.0933 11.9051 -0.4244
v  -3.1562 13.4359 -0.3155
v  -2.7209 11.9051 0.2206
v  -4.2107 11.9051 0.2206
v  -3.7753 13.4359 -0.3155
v  -3.8382 11.9051 -0.4244
v  -3.8382 11.9051 0.8657
v  -3.0933 11.9051 0.8657
v  -3.0184 11.9051 0.9955
v  -3.9131 11.9051 0.9955
v  -2.5711 11.9051 0.2206
v  -4.3605 11.9051 0.2206
v  1.5142 11.7376 -0.0033
v  1.4723 12.7561 0.0692
v  1.6783 12.7561 0.4259
v  1.7620 11.7376 0.4259
v  1.0186 11.7376 -0.0033
v  1.0604 12.7561 0.0692
v  0.7708 11.7376 0.4259
v  0.8545 12.7561 0.4259
v  1.0186 11.7376 0.8551
v  1.0604 12.7561 0.7826
v  1.4723 12.7561 0.7826
v  1.5142 11.7376 0.8551
v  0.9688 11.7376 -0.0896
v  1.5640 11.7376 -0.0896
v  -5.0889 -6.6277 1.1418
v  -4.4744 -7.2451 0.9971
v  -3.5856 -7.2451 1.8859
v  3.1064 -7.2451 1.8859
v  4.6097 -6.6277 1.1418
v  3.9952 -7.2451 0.9971
v  4.6097 -6.6277 -1.1418
v  3.9952 -7.2451 -0.9971
v  3.1064 -7.2451 -1.8859
v  -3.5856 -7.2451 -1.8859
v  -5.0889 -6.6277 -1.1418
v  -5.0889 11.0460 -1.1418
v  -3.9131 11.9051 -0.5542
v  -3.0184 11.9051 -0.5542
v  -5.0889 11.0460 1.1418
v  -4.4744 -7.2451 -0.9971
v  4.6097 11.0460 1.1418
v  4.6097 11.0460 -1.1418
v  3.4839 11.3804 -2.0986
v  4.4729 11.3804 -1.1096
v  4.4729 11.3804 1.1096
v  3.4839 11.3804 2.0986
v  -3.9631 11.3804 2.0986
v  -4.9522 11.3804 1.1096
v  -4.9522 11.3804 -1.1096
v  -3.9631 11.3804 -2.0986
v  3.8736 11.4048 0.4259
v  3.4786 11.4048 1.1102
v  2.6884 11.4048 1.1102
v  2.6884 11.4048 -0.2584
v  2.2933 11.4048 0.4259
v  3.4786 11.4048 -0.2584
v  -2.2781 11.4048 0.2207
v  -2.8719 11.4048 1.2492
v  -4.0596 11.4048 1.2492
v  -4.0596 11.4048 -0.8079
v  -4.6535 11.4048 0.2207
v  -2.8719 11.4048 -0.8079
v  0.6712 11.7376 0.4259
v  0.9688 11.7376 0.9414
v  1.5640 11.7376 0.9414
v  1.8616 11.7376 0.4259
v  2.0565 11.4048 0.4259
v  1.6615 11.4048 1.1102
v  0.8713 11.4048 1.1102
v  0.4762 11.4048 0.4259
v  0.8713 11.4048 -0.2584
v  1.6615 11.4048 -0.2584
# 126 vertices

vn 0.0000 0.0000 1.0000
vn -0.0000 -0.0000 -1.0000
vn 0.8638 0.0710 -0.4987
vn -0.8638 0.0710 -0.4987
vn -0.8638 0.0710 0.4987
vn 0.0000 1.0000 -0.0000
vn -0.0000 1.0000 -0.0000
vn 0.8659 0.0177 -0.4999
vn -0.8659 0.0177 -0.4999
vn -0.8659 0.0177 0.4999
vn 0.8659 0.0177 0.4999
vn 0.8638 0.0710 0.4987
vn 0.0000 0.0710 -0.9975
vn 0.5267 0.0000 0.8501
vn 0.0000 -0.4682 0.8836
vn -0.5267 0.0000 0.8501
vn 0.0000 0.4682 0.8836
vn -0.5336 -0.6562 0.5336
vn 0.0000 -0.4052 0.9142
vn 0.5336 -0.6562 0.5336
vn 0.7087 -0.7055 0.0000
vn 0.5336 -0.6562 -0.5336
vn -0.0000 -0.4052 -0.9142
vn -0.7071 -0.0000 -0.7071
vn -0.7071 0.0000 0.7071
vn 0.0000 -1.0000 0.0000
vn 0.7071 0.0000 0.7071
vn -0.0000 0.0710 -0.9975
vn 0.7071 -0.0000 -0.7071
vn -1.0000 0.0000 0.0000
vn -1.0000 0.0000 -0.0000
vn 0.6659 0.3365 -0.6659
vn 0.9256 0.3786 -0.0000
vn 0.6659 0.3365 0.6659
vn 0.0000 0.1792 0.9838
vn -0.6659 0.3365 0.6659
vn -0.9256 0.3786 -0.0000
vn -0.6659 0.3365 -0.6659
vn -0.0000 0.1792 -0.9838
vn -0.5336 -0.6562 -0.5336
vn -0.7087 -0.7055 0.0000
vn 1.0000 -0.0000 -0.0000
vn 1.0000 -0.0000 0.0000
vn 0.0000 -1.0000 -0.0000
vn -0.0000 -1.0000 0.0000
vn 0.8629 0.5054 -0.0000
vn 0.4314 0.5054 -0.7473
vn -0.4314 0.5054 -0.7473
vn -0.8629 0.5054 -0.0000
vn -0.4314 0.5054 0.7473
vn 0.4314 0.5054 0.7473
vn -0.0000 0.0710 0.9975
vn -0.0000 0.0000 1.0000
vn 0.0000 0.0710 0.9975
vn -0.0000 0.0177 -0.9998
vn 0.0000 0.0177 -0.9998
vn 0.0000 0.0177 0.9998
vn -0.0000 0.0177 0.9998
# 58 vertex normals

vt 0.0509 0.0352 0.0352
vt 0.4346 0.0352 0.0352
vt 0.4163 0.0547 0.0547
vt 0.4346 0.6851 0.6851
vt 0.4163 0.6655 0.6655
vt 0.0509 0.6851 0.6851
vt 0.0692 0.0547 0.0547
vt 0.0692 0.6655 0.6655
vt 0.4346 0.9821 0.9821
vt 0.0509 0.9821 0.9821
vt 0.4038 0.0703 0.0703
vt 0.4038 0.6499 0.6499
vt 0.0816 0.6499 0.6499
vt 0.0816 0.0703 0.0703
vt 0.5190 0.9784 0.9784
vt 0.7319 0.9784 0.9784
vt 0.7319 0.2334 0.2334
vt 0.5190 0.2334 0.2334
vt 0.9624 0.3140 0.3140
vt 0.9624 0.3926 0.3926
vt 0.9917 0.3926 0.3926
vt 0.9917 0.3140 0.3140
vt 0.9077 0.3140 0.3140
vt 0.9077 0.3926 0.3926
vt 0.9375 0.3926 0.3926
vt 0.9375 0.3140 0.3140
vt 0.8784 0.3140 0.3140
vt 0.8784 0.3926 0.3926
vt 0.9346 0.0229 0.0229
vt 0.9375 0.0288 0.0288
vt 0.9678 0.0288 0.0288
vt 0.9707 0.0229 0.0229
vt 0.9893 0.0571 0.0571
vt 0.9829 0.0571 0.0571
vt 0.9678 0.0859 0.0859
vt 0.9707 0.0913 0.0913
vt 0.9375 0.0859 0.0859
vt 0.9346 0.0913 0.0913
vt 0.9224 0.0571 0.0571
vt 0.9165 0.0571 0.0571
vt 0.9653 0.0337 0.0337
vt 0.9399 0.0337 0.0337
vt 0.9277 0.0571 0.0571
vt 0.9653 0.0811 0.0811
vt 0.9399 0.0811 0.0811
vt 0.9780 0.0571 0.0571
vt 0.9326 0.3140 0.3140
vt 0.9326 0.9944 0.9944
vt 0.9639 0.9944 0.9944
vt 0.9639 0.3140 0.3140
vt 0.8760 0.3140 0.3140
vt 0.8760 0.9944 0.9944
vt 0.9067 0.9944 0.9944
vt 0.9067 0.3140 0.3140
vt 0.8452 0.3140 0.3140
vt 0.8452 0.9944 0.9944
vt 0.9946 0.9944 0.9944
vt 0.9946 0.3140 0.3140
vt 0.9277 0.0864 0.0864
vt 0.9224 0.0864 0.0864
vt 0.9077 0.1128 0.1128
vt 0.9102 0.1172 0.1172
vt 0.8784 0.1128 0.1128
vt 0.8755 0.1172 0.1172
vt 0.8638 0.0864 0.0864
vt 0.8584 0.0864 0.0864
vt 0.9595 0.2075 0.2075
vt 0.9595 0.3047 0.3047
vt 0.9902 0.3047 0.3047
vt 0.9902 0.2075 0.2075
vt 0.9038 0.2075 0.2075
vt 0.9038 0.3047 0.3047
vt 0.9341 0.3047 0.3047
vt 0.9341 0.2075 0.2075
vt 0.8730 0.2075 0.2075
vt 0.8730 0.3047 0.3047
vt 0.8174 0.2075 0.2075
vt 0.8174 0.3047 0.3047
vt 0.8477 0.3047 0.3047
vt 0.8477 0.2075 0.2075
vt 0.9004 0.0728 0.0728
vt 0.8853 0.0728 0.0728
vt 0.8774 0.0864 0.0864
vt 0.9004 0.1001 0.1001
vt 0.8853 0.1001 0.1001
vt 0.9082 0.0864 0.0864
vt 0.8237 0.3140 0.3140
vt 0.8237 0.3926 0.3926
vt 0.8535 0.3926 0.3926
vt 0.8535 0.3140 0.3140
vt 0.0000 0.0352 0.0352
vt 0.0308 0.0020 0.0020
vt 0.0753 0.0020 0.0020
vt 0.4102 0.0020 0.0020
vt 0.4856 0.0352 0.0352
vt 0.4546 0.0020 0.0020
vt 0.7603 0.2334 0.2334
vt 0.8091 0.2334 0.2334
vt 0.7920 0.2075 0.2075
vt 0.7432 0.2075 0.2075
vt 0.7188 0.2075 0.2075
vt 0.5327 0.2075 0.2075
vt 0.4478 0.2334 0.2334
vt 0.4478 0.9784 0.9784
vt 0.8755 0.0557 0.0557
vt 0.8784 0.0605 0.0605
vt 0.9077 0.0605 0.0605
vt 0.9102 0.0557 0.0557
vt 0.0000 0.9821 0.9821
vt 0.4543 0.0479 0.0479
vt 0.5342 0.0098 0.0098
vt 0.4973 0.1338 0.1338
vt 0.8115 0.0098 0.0098
vt 0.8486 0.0479 0.0479
vt 0.8115 0.1724 0.1724
vt 0.5342 0.1724 0.1724
vt 0.8486 0.1338 0.1338
vt 0.4856 0.9821 0.9821
vt 0.7603 0.9784 0.9784
vt 0.4910 0.2334 0.2334
vt 0.4910 0.9784 0.9784
vt 0.7290 0.9925 0.9925
vt 0.7563 0.9925 0.9925
vt 0.8091 0.9784 0.9784
vt 0.8052 0.9925 0.9925
vt 0.4785 1.0000 1.0000
vt 0.4292 1.0000 1.0000
vt 0.0564 1.0000 1.0000
vt 0.0068 1.0000 1.0000
vt 0.4946 0.9925 0.9925
vt 0.4517 0.9925 0.9925
vt 0.5220 0.9925 0.9925
vt 0.4648 0.2075 0.2075
vt 0.5078 0.2075 0.2075
vt 0.9922 0.1743 0.1743
vt 1.0225 0.1743 0.1743
vt 0.8765 0.1743 0.1743
vt 0.9365 0.1743 0.1743
vt 0.9063 0.1743 0.1743
vt 0.9619 0.1743 0.1743
vt 0.8584 0.0859 0.0859
vt 0.8760 0.0552 0.0552
vt 0.9106 0.0552 0.0552
vt 0.9106 0.1167 0.1167
vt 0.9282 0.0859 0.0859
vt 0.8760 0.1167 0.1167
vt 0.9922 0.2222 0.2222
vt 0.9619 0.2222 0.2222
vt 0.9365 0.2222 0.2222
vt 0.9063 0.2222 0.2222
vt 0.8765 0.2222 0.2222
vt 0.8511 0.1743 0.1743
vt 0.8511 0.2222 0.2222
vt 0.8208 0.1743 0.1743
vt 0.8208 0.2222 0.2222
vt 0.9902 0.1758 0.1758
vt 0.9595 0.1758 0.1758
vt 0.9341 0.1758 0.1758
vt 0.9038 0.1758 0.1758
vt 0.8730 0.1758 0.1758
vt 0.8477 0.1758 0.1758
vt 0.8174 0.1758 0.1758
vt 0.8208 0.1758 0.1758
vt 0.8506 0.2222 0.2222
vt 0.8506 0.1758 0.1758
vt 0.8760 0.2222 0.2222
vt 0.8760 0.1758 0.1758
vt 0.9058 0.2222 0.2222
vt 0.9058 0.1758 0.1758
vt 0.9360 0.2222 0.2222
vt 0.9360 0.1758 0.1758
vt 0.9609 0.2222 0.2222
vt 0.9609 0.1758 0.1758
vt 0.9907 0.2222 0.2222
vt 0.9907 0.1758 0.1758
vt 1.0205 0.1758 0.1758
vt 0.5327 0.0098 0.0098
vt 0.8130 0.0098 0.0098
vt 0.8071 0.0479 0.0479
vt 0.8130 0.1724 0.1724
vt 0.4956 0.1338 0.1338
vt 0.5327 0.1724 0.1724
vt 0.8501 0.1338 0.1338
vt 0.4956 0.0479 0.0479
vt 0.8193 0.3140 0.3140
vt 0.8193 0.9944 0.9944
# 186 texture coords

g Walkie_Talkie
usemtl Material_0
s 1
f 1/1/1 2/2/1 3/3/1 
s 2
f 2/2/1 4/4/1 5/5/1 
s 3
f 6/6/1 1/1/1 7/7/1 
s 4
f 4/4/1 6/6/1 8/8/1 
s 5
f 8/8/1 5/5/1 4/4/1 
s 6
f 9/9/1 10/10/1 6/6/1 
s 7
f 6/6/1 4/4/1 9/9/1 
s 8
f 11/11/1 12/12/1 13/13/1 
s 9
f 13/13/1 14/14/1 11/11/1 
s 10
f 15/15/2 16/16/2 17/17/2 
s 11
f 17/17/2 18/18/2 15/15/2 
s 12
f 19/19/3 20/20/3 21/21/3 
s 13
f 21/21/3 22/22/3 19/19/3 
s 14
f 23/23/4 24/24/4 25/25/4 
s 15
f 25/25/4 26/26/4 23/23/4 
s 16
f 27/27/5 28/28/5 24/24/5 
s 17
f 24/24/5 23/23/5 27/27/5 
s 18
f 29/29/6 26/30/6 19/31/6 
s 19
f 19/31/6 30/32/6 29/29/6 
s 20
f 31/33/6 22/34/6 32/35/6 
s 21
f 32/35/6 33/36/6 31/33/6 
s 22
f 33/36/6 32/35/6 27/37/6 
s 23
f 27/37/6 34/38/6 33/36/6 
s 24
f 34/38/6 27/37/6 23/39/6 
s 25
f 23/39/6 35/40/6 34/38/6 
s 26
f 20/41/7 25/42/7 24/43/6 
s 27
f 20/41/7 24/43/6 36/44/7 
s 28
f 24/43/6 28/45/6 36/44/7 
s 29
f 21/46/7 20/41/7 36/44/7 
s 30
f 37/47/8 38/48/8 39/49/8 
s 31
f 39/49/8 40/50/8 37/47/8 
s 32
f 41/51/9 42/52/9 43/53/9 
s 33
f 43/53/9 44/54/9 41/51/9 
s 34
f 45/55/10 46/56/10 42/52/10 
s 35
f 42/52/10 41/51/10 45/55/10 
s 36
f 40/50/11 39/49/11 47/57/11 
s 37
f 47/57/11 48/58/11 40/50/11 
s 38
f 49/59/6 40/60/6 48/61/6 
s 39
f 48/61/6 50/62/6 49/59/6 
s 40
f 50/62/6 48/61/6 45/63/6 
s 41
f 45/63/6 51/64/6 50/62/6 
s 42
f 51/64/6 45/63/6 41/65/6 
s 43
f 41/65/6 52/66/6 51/64/6 
s 44
f 53/67/3 54/68/3 49/69/3 
s 45
f 49/69/3 55/70/3 53/67/3 
s 46
f 56/71/4 52/72/4 57/73/4 
s 47
f 57/73/4 58/74/4 56/71/4 
s 48
f 59/75/5 51/76/5 52/72/5 
s 49
f 52/72/5 56/71/5 59/75/5 
s 50
f 55/77/12 49/78/12 50/79/12 
s 51
f 50/79/12 60/80/12 55/77/12 
s 52
f 61/80/6 60/80/6 59/75/6 
s 53
f 59/75/6 62/75/6 61/80/6 
s 54
f 63/77/6 55/77/6 60/80/6 
s 55
f 56/71/6 64/71/6 62/75/6 
s 56
f 38/81/6 43/82/6 42/83/6 
s 57
f 38/81/6 42/83/6 47/84/6 
s 58
f 42/83/6 46/85/6 47/84/6 
s 59
f 39/86/6 38/81/6 47/84/6 
s 60
f 65/19/3 66/20/3 67/21/3 
s 61
f 67/21/3 68/22/3 65/19/3 
s 62
f 69/26/13 70/25/13 66/20/13 
s 63
f 66/20/13 65/19/13 69/26/13 
s 64
f 71/23/4 72/24/4 70/25/4 
s 65
f 70/25/4 69/26/4 71/23/4 
s 66
f 73/27/5 74/28/5 72/24/5 
s 67
f 72/24/5 71/23/5 73/27/5 
s 68
f 68/87/12 67/88/12 75/89/12 
s 69
f 75/89/12 76/90/12 68/87/12 
s 70
f 77/29/6 69/30/6 65/31/6 
s 71
f 65/31/6 78/32/6 77/29/6 
s 72
f 66/41/7 70/42/6 72/43/6 
s 73
f 66/41/7 72/43/6 75/44/7 
s 74
f 72/43/6 74/45/6 75/44/7 
s 75
f 67/46/7 66/41/7 75/44/7 
s 76
f 8/8/14 7/7/14 14/14/14 
s 77
f 14/14/14 13/13/14 8/8/14 
s 78
f 5/5/15 8/8/15 13/13/15 
s 79
f 13/13/15 12/12/15 5/5/15 
s 80
f 3/3/16 5/5/16 12/12/16 
s 81
f 12/12/16 11/11/16 3/3/16 
s 82
f 7/7/17 3/3/17 11/11/17 
s 83
f 11/11/17 14/14/17 7/7/17 
s 84
f 1/1/18 79/91/18 80/92/18 
s 85
f 80/92/18 81/93/18 1/1/18 
s 86
f 2/2/19 1/1/19 81/93/19 
s 87
f 81/93/19 82/94/19 2/2/19 
s 88
f 83/95/20 2/2/20 82/94/20 
s 89
f 82/94/20 84/96/20 83/95/20 
s 90
f 85/97/21 83/98/21 84/99/21 
s 91
f 84/99/21 86/100/21 85/97/21 
s 92
f 17/17/22 85/97/22 86/100/22 
s 93
f 86/100/22 87/101/22 17/17/22 
s 94
f 18/18/23 17/17/23 87/101/23 
s 95
f 87/101/23 88/102/23 18/18/23 
s 96
f 89/103/24 90/104/24 15/15/24 
s 97
f 15/15/24 18/18/24 89/103/24 
s 98
f 57/105/6 44/106/6 37/107/6 
s 99
f 37/107/6 54/108/6 57/105/6 
s 100
f 91/74/6 58/74/6 53/67/6 
s 101
f 53/67/6 92/67/6 91/74/6 
s 102
f 79/91/25 1/1/25 6/6/25 
s 103
f 6/6/25 93/109/25 79/91/25 
s 104
f 10/10/25 93/109/25 6/6/25 
s 105
f 94/110/26 88/111/26 80/112/26 
s 106
f 88/111/26 87/113/26 86/114/26 
s 107
f 88/111/26 86/114/26 82/115/26 
s 108
f 88/111/26 82/115/26 80/112/26 
s 109
f 82/115/26 81/116/26 80/112/26 
s 110
f 86/114/26 84/117/26 82/115/26 
s 111
f 20/20/13 19/19/13 26/26/13 
s 112
f 95/118/27 9/9/27 4/4/27 
s 113
f 83/95/27 95/118/27 4/4/27 
s 114
f 4/4/27 2/2/27 83/95/27 
s 115
f 26/26/28 25/25/28 20/20/28 
s 116
f 85/97/29 17/17/29 16/16/29 
s 117
f 16/16/29 96/119/29 85/97/29 
s 118
f 89/103/30 79/120/30 93/121/30 
s 119
f 93/121/30 90/104/31 89/103/30 
s 120
f 96/119/32 16/16/32 97/122/32 
s 121
f 97/122/32 98/123/32 96/119/32 
s 122
f 95/124/33 96/119/33 98/123/33 
s 123
f 98/123/33 99/125/33 95/124/33 
s 124
f 9/9/34 95/118/34 99/126/34 
s 125
f 99/126/34 100/127/34 9/9/34 
s 126
f 10/10/35 9/9/35 100/127/35 
s 127
f 100/127/35 101/128/35 10/10/35 
s 128
f 93/109/36 10/10/36 101/128/36 
s 129
f 101/128/36 102/129/36 93/109/36 
s 130
f 90/104/37 93/121/37 102/130/37 
s 131
f 102/130/37 103/131/37 90/104/37 
s 132
f 15/15/38 90/104/38 103/131/38 
s 133
f 103/131/38 104/132/38 15/15/38 
s 134
f 16/16/39 15/15/39 104/132/39 
s 135
f 104/132/39 97/122/39 16/16/39 
s 136
f 89/103/40 18/18/40 88/102/40 
s 137
f 88/102/40 94/133/40 89/103/40 
s 138
f 79/120/41 89/103/41 94/133/41 
s 139
f 94/133/41 80/134/41 79/120/41 
s 140
f 83/98/42 85/97/42 96/119/42 
s 141
f 96/119/42 95/124/43 83/98/42 
s 142
f 105/135/26 106/136/44 107/137/45 
s 143
f 105/135/26 107/137/45 108/138/45 
s 144
f 107/137/45 109/139/45 108/138/45 
s 145
f 110/140/26 105/135/26 108/138/45 
s 146
f 111/141/26 112/142/44 113/143/45 
s 147
f 111/141/26 113/143/45 114/144/45 
s 148
f 113/143/45 115/145/45 114/144/45 
s 149
f 116/146/26 111/141/26 114/144/45 
s 150
f 71/39/6 117/40/6 118/38/6 
s 151
f 118/38/6 73/37/6 71/39/6 
s 152
f 73/37/6 118/38/6 119/36/6 
s 153
f 119/36/6 76/35/6 73/37/6 
s 154
f 76/35/6 119/36/6 120/33/6 
s 155
f 120/33/6 68/34/6 76/35/6 
s 156
f 31/147/46 105/135/46 110/140/47 
s 157
f 110/140/47 30/148/47 31/147/46 
s 158
f 30/148/47 110/140/47 108/138/48 
s 159
f 108/138/48 29/149/48 30/148/47 
s 160
f 29/149/48 108/138/48 109/139/49 
s 161
f 109/139/49 35/150/49 29/149/48 
s 162
f 35/150/49 109/139/49 107/137/50 
s 163
f 107/137/50 34/151/50 35/150/49 
s 164
f 34/151/50 107/137/50 106/152/51 
s 165
f 106/152/51 33/153/51 34/151/50 
s 166
f 33/153/51 106/152/51 105/154/46 
s 167
f 105/154/46 31/155/46 33/153/51 
s 168
f 63/70/46 111/156/46 116/157/47 
s 169
f 116/157/47 92/67/47 63/70/46 
s 170
f 92/67/47 116/157/47 114/158/48 
s 171
f 114/158/48 91/74/48 92/67/47 
s 172
f 91/74/48 114/158/48 115/159/49 
s 173
f 115/159/49 64/71/49 91/74/48 
s 174
f 64/71/49 115/159/49 113/160/50 
s 175
f 113/160/50 62/75/50 64/71/49 
s 176
f 62/75/50 113/160/50 112/161/51 
s 177
f 112/161/51 61/80/51 62/75/50 
s 178
f 61/80/51 112/161/51 111/162/46 
s 179
f 111/162/46 63/77/46 61/80/51 
s 180
f 121/163/46 120/155/46 119/164/51 
s 181
f 119/164/51 122/165/51 121/163/46 
s 182
f 122/165/51 119/164/51 118/166/50 
s 183
f 118/166/50 123/167/50 122/165/51 
s 184
f 123/167/50 118/166/50 117/168/49 
s 185
f 117/168/49 124/169/49 123/167/50 
s 186
f 124/169/49 117/168/49 77/170/48 
s 187
f 77/170/48 125/171/48 124/169/49 
s 188
f 125/171/48 77/170/48 78/172/47 
s 189
f 78/172/47 126/173/47 125/171/48 
s 190
f 126/173/47 78/172/47 120/174/46 
s 191
f 120/174/46 121/175/46 126/173/47 
s 192
f 121/175/26 122/176/44 123/167/45 
s 193
f 121/175/26 123/167/45 125/171/45 
s 194
f 126/173/26 121/175/26 125/171/45 
s 195
f 123/167/45 124/169/45 125/171/45 
s 196
f 97/177/6 104/178/7 103/179/7 
s 197
f 97/177/6 103/179/7 101/180/7 
s 198
f 97/177/6 101/180/7 99/181/6 
s 199
f 101/180/7 100/182/7 99/181/6 
s 200
f 103/179/7 102/183/7 101/180/7 
s 201
f 98/184/7 97/177/6 99/181/6 
s 202
f 3/3/1 7/7/1 1/1/1 
s 203
f 28/28/52 27/27/52 32/90/52 
s 204
f 5/5/53 3/3/53 2/2/53 
s 205
f 32/90/54 36/89/54 28/28/54 
s 206
f 7/7/53 8/8/53 6/6/53 
s 207
f 36/89/12 32/90/12 22/87/12 
s 208
f 22/87/12 21/88/12 36/89/12 
s 209
f 22/34/6 31/33/6 30/32/6 
s 210
f 117/40/6 71/39/6 69/30/6 
s 211
f 30/32/7 19/31/7 22/34/7 
s 212
f 69/30/6 77/29/6 117/40/6 
s 213
f 26/30/6 29/29/6 35/40/6 
s 214
f 78/32/7 65/31/7 68/34/7 
s 215
f 35/40/6 23/39/6 26/30/6 
s 216
f 68/34/7 120/33/7 78/32/7 
s 217
f 38/48/55 37/47/55 44/54/55 
s 218
f 76/90/54 75/89/54 74/28/54 
s 219
f 44/54/56 43/53/56 38/48/56 
s 220
f 74/28/52 73/27/52 76/90/52 
s 221
f 46/56/57 45/55/57 48/185/57 
s 222
f 60/80/6 61/80/6 63/77/6 
s 223
f 48/185/58 47/186/58 46/56/58 
s 224
f 62/75/6 59/75/6 56/71/6 
s 225
f 40/60/6 49/59/6 54/108/6 
s 226
f 64/71/6 56/71/6 58/74/6 
s 227
f 58/74/6 91/74/6 64/71/6 
s 228
f 92/67/7 53/67/7 55/70/7 
s 229
f 54/108/7 37/107/7 40/60/7 
s 230
f 55/70/6 63/70/6 92/67/6 
s 231
f 44/106/6 57/105/6 52/66/6 
s 232
f 60/80/52 50/79/52 51/76/52 
s 233
f 52/66/6 41/65/6 44/106/6 
s 234
f 51/76/54 59/75/54 60/80/54 
s 235
f 54/68/13 53/67/13 58/74/13 
s 236
f 58/74/28 57/73/28 54/68/28 
# 236 faces

